<svg width="32" height="32" viewBox="0 0 32 32" fill="none" xmlns="http://www.w3.org/2000/svg">
  <rect width="32" height="32" rx="6" fill="#4A90A4"/>
  <path d="M16 8C17.6569 8 19 9.34315 19 11C19 12.6569 17.6569 14 16 14C14.3431 14 13 12.6569 13 11C13 9.34315 14.3431 8 16 8Z" fill="white"/>
  <path d="M11 16C11 15.4477 11.4477 15 12 15H20C20.5523 15 21 15.4477 21 16C21 16.5523 20.5523 17 20 17H19L18 20L19.5 23C19.7761 23.5523 19.5761 24.2071 19.0607 24.5607C18.5454 24.9142 17.8284 24.8284 17.4142 24.4142L16 23L14.5858 24.4142C14.1716 24.8284 13.4546 24.9142 12.9393 24.5607C12.4239 24.2071 12.2239 23.5523 12.5 23L14 20L13 17H12C11.4477 17 11 16.5523 11 16Z" fill="white"/>
  <circle cx="16" cy="11" r="1.5" fill="#4A90A4"/>
</svg>